<svg width="37" height="37" viewBox="0 0 37 37" fill="none" xmlns="http://www.w3.org/2000/svg">
<path d="M33.4261 36.421L21.6534 24.6316C20.6023 25.4737 19.3935 26.1403 18.027 26.6316C16.6605 27.1228 15.2064 27.3684 13.6648 27.3684C9.84564 27.3684 6.61375 26.0442 3.96909 23.3958C1.32303 20.746 0 17.5088 0 13.6842C0 9.85965 1.32303 6.62246 3.96909 3.97263C6.61375 1.32421 9.84564 0 13.6648 0C17.4839 0 20.7165 1.32421 23.3626 3.97263C26.0072 6.62246 27.3295 9.85965 27.3295 13.6842C27.3295 15.2281 27.0843 16.6842 26.5938 18.0526C26.1032 19.4211 25.4375 20.6316 24.5966 21.6842L36.4219 33.5263C36.8073 33.9123 37 34.386 37 34.9474C37 35.5088 36.7898 36 36.3693 36.421C35.9839 36.807 35.4934 37 34.8977 37C34.3021 37 33.8116 36.807 33.4261 36.421ZM13.6648 23.1579C16.2926 23.1579 18.5266 22.2372 20.3668 20.3958C22.2056 18.553 23.125 16.3158 23.125 13.6842C23.125 11.0526 22.2056 8.81544 20.3668 6.97263C18.5266 5.13123 16.2926 4.21053 13.6648 4.21053C11.0369 4.21053 8.80292 5.13123 6.96273 6.97263C5.12394 8.81544 4.20455 11.0526 4.20455 13.6842C4.20455 16.3158 5.12394 18.553 6.96273 20.3958C8.80292 22.2372 11.0369 23.1579 13.6648 23.1579Z" fill="#E3B652"/>
</svg>
